<?xml version="1.0" encoding="utf-8" standalone="no"?>
<!DOCTYPE svg PUBLIC "-//W3C//DTD SVG 1.1//EN"
  "http://www.w3.org/Graphics/SVG/1.1/DTD/svg11.dtd">
<!-- Created with matplotlib (https://matplotlib.org/) -->
<svg height="288pt" version="1.1" viewBox="0 0 432 288" width="432pt" xmlns="http://www.w3.org/2000/svg" xmlns:xlink="http://www.w3.org/1999/xlink">
 <defs>
  <style type="text/css">
*{stroke-linecap:butt;stroke-linejoin:round;}
  </style>
 </defs>
 <g id="figure_1">
  <g id="patch_1">
   <path d="M 0 288 
L 432 288 
L 432 0 
L 0 0 
z
" style="fill:#ffffff;"/>
  </g>
  <g id="axes_1">
   <g id="patch_2">
    <path d="M 54 252 
L 388.8 252 
L 388.8 34.56 
L 54 34.56 
z
" style="fill:#ffffff;"/>
   </g>
   <g id="PathCollection_1">
    <defs>
     <path d="M 0 3 
C 0.795609 3 1.55874 2.683901 2.12132 2.12132 
C 2.683901 1.55874 3 0.795609 3 0 
C 3 -0.795609 2.683901 -1.55874 2.12132 -2.12132 
C 1.55874 -2.683901 0.795609 -3 0 -3 
C -0.795609 -3 -1.55874 -2.683901 -2.12132 -2.12132 
C -2.683901 -1.55874 -3 -0.795609 -3 0 
C -3 0.795609 -2.683901 1.55874 -2.12132 2.12132 
C -1.55874 2.683901 -0.795609 3 0 3 
z
" id="m2557f4e210" style="stroke:#0000ff;stroke-opacity:0.4;"/>
    </defs>
    <g clip-path="url(#pfa2b921f32)">
     <use style="fill:#0000ff;fill-opacity:0.4;stroke:#0000ff;stroke-opacity:0.4;" x="299.250732" xlink:href="#m2557f4e210" y="106.279089"/>
     <use style="fill:#0000ff;fill-opacity:0.4;stroke:#0000ff;stroke-opacity:0.4;" x="145.439817" xlink:href="#m2557f4e210" y="170.598954"/>
     <use style="fill:#0000ff;fill-opacity:0.4;stroke:#0000ff;stroke-opacity:0.4;" x="293.934263" xlink:href="#m2557f4e210" y="107.20116"/>
     <use style="fill:#0000ff;fill-opacity:0.4;stroke:#0000ff;stroke-opacity:0.4;" x="111.467128" xlink:href="#m2557f4e210" y="211.194061"/>
     <use style="fill:#0000ff;fill-opacity:0.4;stroke:#0000ff;stroke-opacity:0.4;" x="133.535051" xlink:href="#m2557f4e210" y="204.742267"/>
     <use style="fill:#0000ff;fill-opacity:0.4;stroke:#0000ff;stroke-opacity:0.4;" x="155.625892" xlink:href="#m2557f4e210" y="217.87672"/>
     <use style="fill:#0000ff;fill-opacity:0.4;stroke:#0000ff;stroke-opacity:0.4;" x="263.708309" xlink:href="#m2557f4e210" y="98.796472"/>
     <use style="fill:#0000ff;fill-opacity:0.4;stroke:#0000ff;stroke-opacity:0.4;" x="172.159646" xlink:href="#m2557f4e210" y="159.442176"/>
     <use style="fill:#0000ff;fill-opacity:0.4;stroke:#0000ff;stroke-opacity:0.4;" x="292.158308" xlink:href="#m2557f4e210" y="122.983385"/>
     <use style="fill:#0000ff;fill-opacity:0.4;stroke:#0000ff;stroke-opacity:0.4;" x="232.657389" xlink:href="#m2557f4e210" y="131.001815"/>
     <use style="fill:#0000ff;fill-opacity:0.4;stroke:#0000ff;stroke-opacity:0.4;" x="231.030366" xlink:href="#m2557f4e210" y="181.780781"/>
     <use style="fill:#0000ff;fill-opacity:0.4;stroke:#0000ff;stroke-opacity:0.4;" x="151.718754" xlink:href="#m2557f4e210" y="195.906912"/>
     <use style="fill:#0000ff;fill-opacity:0.4;stroke:#0000ff;stroke-opacity:0.4;" x="274.982892" xlink:href="#m2557f4e210" y="109.619531"/>
     <use style="fill:#0000ff;fill-opacity:0.4;stroke:#0000ff;stroke-opacity:0.4;" x="328.674629" xlink:href="#m2557f4e210" y="87.250069"/>
     <use style="fill:#0000ff;fill-opacity:0.4;stroke:#0000ff;stroke-opacity:0.4;" x="190.045435" xlink:href="#m2557f4e210" y="150.145589"/>
     <use style="fill:#0000ff;fill-opacity:0.4;stroke:#0000ff;stroke-opacity:0.4;" x="200.609629" xlink:href="#m2557f4e210" y="200.699913"/>
     <use style="fill:#0000ff;fill-opacity:0.4;stroke:#0000ff;stroke-opacity:0.4;" x="176.101171" xlink:href="#m2557f4e210" y="151.588807"/>
     <use style="fill:#0000ff;fill-opacity:0.4;stroke:#0000ff;stroke-opacity:0.4;" x="187.45596" xlink:href="#m2557f4e210" y="177.677478"/>
     <use style="fill:#0000ff;fill-opacity:0.4;stroke:#0000ff;stroke-opacity:0.4;" x="125.205154" xlink:href="#m2557f4e210" y="211.362248"/>
     <use style="fill:#0000ff;fill-opacity:0.4;stroke:#0000ff;stroke-opacity:0.4;" x="297.29144" xlink:href="#m2557f4e210" y="107.999811"/>
     <use style="fill:#0000ff;fill-opacity:0.4;stroke:#0000ff;stroke-opacity:0.4;" x="314.753291" xlink:href="#m2557f4e210" y="103.059554"/>
     <use style="fill:#0000ff;fill-opacity:0.4;stroke:#0000ff;stroke-opacity:0.4;" x="285.890833" xlink:href="#m2557f4e210" y="130.296644"/>
     <use style="fill:#0000ff;fill-opacity:0.4;stroke:#0000ff;stroke-opacity:0.4;" x="262.344828" xlink:href="#m2557f4e210" y="126.959871"/>
     <use style="fill:#0000ff;fill-opacity:0.4;stroke:#0000ff;stroke-opacity:0.4;" x="132.973612" xlink:href="#m2557f4e210" y="205.251985"/>
     <use style="fill:#0000ff;fill-opacity:0.4;stroke:#0000ff;stroke-opacity:0.4;" x="284.573155" xlink:href="#m2557f4e210" y="85.745004"/>
     <use style="fill:#0000ff;fill-opacity:0.4;stroke:#0000ff;stroke-opacity:0.4;" x="138.461954" xlink:href="#m2557f4e210" y="178.609586"/>
     <use style="fill:#0000ff;fill-opacity:0.4;stroke:#0000ff;stroke-opacity:0.4;" x="111.948354" xlink:href="#m2557f4e210" y="196.135263"/>
     <use style="fill:#0000ff;fill-opacity:0.4;stroke:#0000ff;stroke-opacity:0.4;" x="277.446343" xlink:href="#m2557f4e210" y="125.052199"/>
     <use style="fill:#0000ff;fill-opacity:0.4;stroke:#0000ff;stroke-opacity:0.4;" x="188.842365" xlink:href="#m2557f4e210" y="182.403583"/>
     <use style="fill:#0000ff;fill-opacity:0.4;stroke:#0000ff;stroke-opacity:0.4;" x="279.222315" xlink:href="#m2557f4e210" y="124.416058"/>
     <use style="fill:#0000ff;fill-opacity:0.4;stroke:#0000ff;stroke-opacity:0.4;" x="114.02224" xlink:href="#m2557f4e210" y="226.364666"/>
     <use style="fill:#0000ff;fill-opacity:0.4;stroke:#0000ff;stroke-opacity:0.4;" x="263.55936" xlink:href="#m2557f4e210" y="137.703439"/>
     <use style="fill:#0000ff;fill-opacity:0.4;stroke:#0000ff;stroke-opacity:0.4;" x="205.582365" xlink:href="#m2557f4e210" y="179.088489"/>
     <use style="fill:#0000ff;fill-opacity:0.4;stroke:#0000ff;stroke-opacity:0.4;" x="315.956376" xlink:href="#m2557f4e210" y="111.595611"/>
     <use style="fill:#0000ff;fill-opacity:0.4;stroke:#0000ff;stroke-opacity:0.4;" x="184.28212" xlink:href="#m2557f4e210" y="196.768905"/>
     <use style="fill:#0000ff;fill-opacity:0.4;stroke:#0000ff;stroke-opacity:0.4;" x="239.03944" xlink:href="#m2557f4e210" y="142.384634"/>
     <use style="fill:#0000ff;fill-opacity:0.4;stroke:#0000ff;stroke-opacity:0.4;" x="165.617183" xlink:href="#m2557f4e210" y="216.768244"/>
     <use style="fill:#0000ff;fill-opacity:0.4;stroke:#0000ff;stroke-opacity:0.4;" x="143.434683" xlink:href="#m2557f4e210" y="155.204959"/>
     <use style="fill:#0000ff;fill-opacity:0.4;stroke:#0000ff;stroke-opacity:0.4;" x="344.498011" xlink:href="#m2557f4e210" y="82.93334"/>
     <use style="fill:#0000ff;fill-opacity:0.4;stroke:#0000ff;stroke-opacity:0.4;" x="153.128069" xlink:href="#m2557f4e210" y="175.462338"/>
     <use style="fill:#0000ff;fill-opacity:0.4;stroke:#0000ff;stroke-opacity:0.4;" x="140.512914" xlink:href="#m2557f4e210" y="160.366048"/>
     <use style="fill:#0000ff;fill-opacity:0.4;stroke:#0000ff;stroke-opacity:0.4;" x="136.605769" xlink:href="#m2557f4e210" y="203.772354"/>
     <use style="fill:#0000ff;fill-opacity:0.4;stroke:#0000ff;stroke-opacity:0.4;" x="308.073326" xlink:href="#m2557f4e210" y="107.462006"/>
     <use style="fill:#0000ff;fill-opacity:0.4;stroke:#0000ff;stroke-opacity:0.4;" x="266.996742" xlink:href="#m2557f4e210" y="130.168918"/>
     <use style="fill:#0000ff;fill-opacity:0.4;stroke:#0000ff;stroke-opacity:0.4;" x="139.447331" xlink:href="#m2557f4e210" y="188.160533"/>
     <use style="fill:#0000ff;fill-opacity:0.4;stroke:#0000ff;stroke-opacity:0.4;" x="262.803137" xlink:href="#m2557f4e210" y="121.31049"/>
     <use style="fill:#0000ff;fill-opacity:0.4;stroke:#0000ff;stroke-opacity:0.4;" x="240.689388" xlink:href="#m2557f4e210" y="136.549506"/>
     <use style="fill:#0000ff;fill-opacity:0.4;stroke:#0000ff;stroke-opacity:0.4;" x="200.437755" xlink:href="#m2557f4e210" y="112.499308"/>
     <use style="fill:#0000ff;fill-opacity:0.4;stroke:#0000ff;stroke-opacity:0.4;" x="320.012479" xlink:href="#m2557f4e210" y="96.102608"/>
     <use style="fill:#0000ff;fill-opacity:0.4;stroke:#0000ff;stroke-opacity:0.4;" x="165.766132" xlink:href="#m2557f4e210" y="196.083332"/>
     <use style="fill:#0000ff;fill-opacity:0.4;stroke:#0000ff;stroke-opacity:0.4;" x="184.59148" xlink:href="#m2557f4e210" y="208.281876"/>
     <use style="fill:#0000ff;fill-opacity:0.4;stroke:#0000ff;stroke-opacity:0.4;" x="306.136927" xlink:href="#m2557f4e210" y="108.170652"/>
     <use style="fill:#0000ff;fill-opacity:0.4;stroke:#0000ff;stroke-opacity:0.4;" x="267.099857" xlink:href="#m2557f4e210" y="116.342581"/>
     <use style="fill:#0000ff;fill-opacity:0.4;stroke:#0000ff;stroke-opacity:0.4;" x="254.312829" xlink:href="#m2557f4e210" y="135.519894"/>
     <use style="fill:#0000ff;fill-opacity:0.4;stroke:#0000ff;stroke-opacity:0.4;" x="277.56092" xlink:href="#m2557f4e210" y="129.511712"/>
     <use style="fill:#0000ff;fill-opacity:0.4;stroke:#0000ff;stroke-opacity:0.4;" x="250.978578" xlink:href="#m2557f4e210" y="127.966992"/>
     <use style="fill:#0000ff;fill-opacity:0.4;stroke:#0000ff;stroke-opacity:0.4;" x="217.280886" xlink:href="#m2557f4e210" y="179.162324"/>
     <use style="fill:#0000ff;fill-opacity:0.4;stroke:#0000ff;stroke-opacity:0.4;" x="191.981834" xlink:href="#m2557f4e210" y="150.668529"/>
     <use style="fill:#0000ff;fill-opacity:0.4;stroke:#0000ff;stroke-opacity:0.4;" x="338.883645" xlink:href="#m2557f4e210" y="100.907589"/>
     <use style="fill:#0000ff;fill-opacity:0.4;stroke:#0000ff;stroke-opacity:0.4;" x="163.06208" xlink:href="#m2557f4e210" y="190.945877"/>
     <use style="fill:#0000ff;fill-opacity:0.4;stroke:#0000ff;stroke-opacity:0.4;" x="245.066298" xlink:href="#m2557f4e210" y="145.056793"/>
     <use style="fill:#0000ff;fill-opacity:0.4;stroke:#0000ff;stroke-opacity:0.4;" x="195.946268" xlink:href="#m2557f4e210" y="198.330481"/>
     <use style="fill:#0000ff;fill-opacity:0.4;stroke:#0000ff;stroke-opacity:0.4;" x="124.63226" xlink:href="#m2557f4e210" y="176.493273"/>
     <use style="fill:#0000ff;fill-opacity:0.4;stroke:#0000ff;stroke-opacity:0.4;" x="174.451239" xlink:href="#m2557f4e210" y="152.790862"/>
     <use style="fill:#0000ff;fill-opacity:0.4;stroke:#0000ff;stroke-opacity:0.4;" x="235.235417" xlink:href="#m2557f4e210" y="137.385669"/>
     <use style="fill:#0000ff;fill-opacity:0.4;stroke:#0000ff;stroke-opacity:0.4;" x="167.003589" xlink:href="#m2557f4e210" y="188.066578"/>
     <use style="fill:#0000ff;fill-opacity:0.4;stroke:#0000ff;stroke-opacity:0.4;" x="161.973572" xlink:href="#m2557f4e210" y="161.25091"/>
     <use style="fill:#0000ff;fill-opacity:0.4;stroke:#0000ff;stroke-opacity:0.4;" x="101.63624" xlink:href="#m2557f4e210" y="219.55443"/>
     <use style="fill:#0000ff;fill-opacity:0.4;stroke:#0000ff;stroke-opacity:0.4;" x="195.556686" xlink:href="#m2557f4e210" y="194.389554"/>
     <use style="fill:#0000ff;fill-opacity:0.4;stroke:#0000ff;stroke-opacity:0.4;" x="118.994969" xlink:href="#m2557f4e210" y="222.467371"/>
     <use style="fill:#0000ff;fill-opacity:0.4;stroke:#0000ff;stroke-opacity:0.4;" x="281.11288" xlink:href="#m2557f4e210" y="139.637831"/>
     <use style="fill:#0000ff;fill-opacity:0.4;stroke:#0000ff;stroke-opacity:0.4;" x="129.834151" xlink:href="#m2557f4e210" y="157.276676"/>
     <use style="fill:#0000ff;fill-opacity:0.4;stroke:#0000ff;stroke-opacity:0.4;" x="302.126674" xlink:href="#m2557f4e210" y="126.673407"/>
     <use style="fill:#0000ff;fill-opacity:0.4;stroke:#0000ff;stroke-opacity:0.4;" x="243.324697" xlink:href="#m2557f4e210" y="122.159579"/>
     <use style="fill:#0000ff;fill-opacity:0.4;stroke:#0000ff;stroke-opacity:0.4;" x="204.06992" xlink:href="#m2557f4e210" y="185.957339"/>
     <use style="fill:#0000ff;fill-opacity:0.4;stroke:#0000ff;stroke-opacity:0.4;" x="314.581417" xlink:href="#m2557f4e210" y="95.738087"/>
     <use style="fill:#0000ff;fill-opacity:0.4;stroke:#0000ff;stroke-opacity:0.4;" x="152.738503" xlink:href="#m2557f4e210" y="194.255252"/>
     <use style="fill:#0000ff;fill-opacity:0.4;stroke:#0000ff;stroke-opacity:0.4;" x="310.147211" xlink:href="#m2557f4e210" y="79.636148"/>
     <use style="fill:#0000ff;fill-opacity:0.4;stroke:#0000ff;stroke-opacity:0.4;" x="151.260429" xlink:href="#m2557f4e210" y="221.472679"/>
     <use style="fill:#0000ff;fill-opacity:0.4;stroke:#0000ff;stroke-opacity:0.4;" x="154.674886" xlink:href="#m2557f4e210" y="172.524603"/>
     <use style="fill:#0000ff;fill-opacity:0.4;stroke:#0000ff;stroke-opacity:0.4;" x="373.394856" xlink:href="#m2557f4e210" y="109.502086"/>
     <use style="fill:#0000ff;fill-opacity:0.4;stroke:#0000ff;stroke-opacity:0.4;" x="144.362771" xlink:href="#m2557f4e210" y="184.187014"/>
     <use style="fill:#0000ff;fill-opacity:0.4;stroke:#0000ff;stroke-opacity:0.4;" x="184.694595" xlink:href="#m2557f4e210" y="179.889936"/>
     <use style="fill:#0000ff;fill-opacity:0.4;stroke:#0000ff;stroke-opacity:0.4;" x="145.267943" xlink:href="#m2557f4e210" y="191.614044"/>
     <use style="fill:#0000ff;fill-opacity:0.4;stroke:#0000ff;stroke-opacity:0.4;" x="197.894114" xlink:href="#m2557f4e210" y="169.202293"/>
     <use style="fill:#0000ff;fill-opacity:0.4;stroke:#0000ff;stroke-opacity:0.4;" x="137.992174" xlink:href="#m2557f4e210" y="192.391612"/>
     <use style="fill:#0000ff;fill-opacity:0.4;stroke:#0000ff;stroke-opacity:0.4;" x="167.874389" xlink:href="#m2557f4e210" y="148.839475"/>
     <use style="fill:#0000ff;fill-opacity:0.4;stroke:#0000ff;stroke-opacity:0.4;" x="290.565656" xlink:href="#m2557f4e210" y="105.213993"/>
     <use style="fill:#0000ff;fill-opacity:0.4;stroke:#0000ff;stroke-opacity:0.4;" x="224.121246" xlink:href="#m2557f4e210" y="169.877503"/>
     <use style="fill:#0000ff;fill-opacity:0.4;stroke:#0000ff;stroke-opacity:0.4;" x="277.492177" xlink:href="#m2557f4e210" y="100.944413"/>
     <use style="fill:#0000ff;fill-opacity:0.4;stroke:#0000ff;stroke-opacity:0.4;" x="235.659371" xlink:href="#m2557f4e210" y="118.629432"/>
     <use style="fill:#0000ff;fill-opacity:0.4;stroke:#0000ff;stroke-opacity:0.4;" x="281.949292" xlink:href="#m2557f4e210" y="98.757307"/>
     <use style="fill:#0000ff;fill-opacity:0.4;stroke:#0000ff;stroke-opacity:0.4;" x="270.72056" xlink:href="#m2557f4e210" y="114.427908"/>
     <use style="fill:#0000ff;fill-opacity:0.4;stroke:#0000ff;stroke-opacity:0.4;" x="263.318743" xlink:href="#m2557f4e210" y="133.241881"/>
     <use style="fill:#0000ff;fill-opacity:0.4;stroke:#0000ff;stroke-opacity:0.4;" x="250.359857" xlink:href="#m2557f4e210" y="163.258132"/>
     <use style="fill:#0000ff;fill-opacity:0.4;stroke:#0000ff;stroke-opacity:0.4;" x="305.541131" xlink:href="#m2557f4e210" y="105.732699"/>
     <use style="fill:#0000ff;fill-opacity:0.4;stroke:#0000ff;stroke-opacity:0.4;" x="294.449885" xlink:href="#m2557f4e210" y="90.391771"/>
     <use style="fill:#0000ff;fill-opacity:0.4;stroke:#0000ff;stroke-opacity:0.4;" x="347.660389" xlink:href="#m2557f4e210" y="111.548687"/>
     <use style="fill:#0000ff;fill-opacity:0.4;stroke:#0000ff;stroke-opacity:0.4;" x="236.197886" xlink:href="#m2557f4e210" y="156.164162"/>
     <use style="fill:#0000ff;fill-opacity:0.4;stroke:#0000ff;stroke-opacity:0.4;" x="293.017645" xlink:href="#m2557f4e210" y="111.769617"/>
    </g>
   </g>
   <g id="matplotlib.axis_1">
    <g id="xtick_1">
     <g id="line2d_1">
      <defs>
       <path d="M 0 0 
L 0 3.5 
" id="ma2d2208d4f" style="stroke:#000000;stroke-width:0.8;"/>
      </defs>
      <g>
       <use style="stroke:#000000;stroke-width:0.8;" x="95.85" xlink:href="#ma2d2208d4f" y="252"/>
      </g>
     </g>
     <g id="text_1">
      <!-- 20 -->
      <defs>
       <path d="M 19.1875 8.296875 
L 53.609375 8.296875 
L 53.609375 0 
L 7.328125 0 
L 7.328125 8.296875 
Q 12.9375 14.109375 22.625 23.890625 
Q 32.328125 33.6875 34.8125 36.53125 
Q 39.546875 41.84375 41.421875 45.53125 
Q 43.3125 49.21875 43.3125 52.78125 
Q 43.3125 58.59375 39.234375 62.25 
Q 35.15625 65.921875 28.609375 65.921875 
Q 23.96875 65.921875 18.8125 64.3125 
Q 13.671875 62.703125 7.8125 59.421875 
L 7.8125 69.390625 
Q 13.765625 71.78125 18.9375 73 
Q 24.125 74.21875 28.421875 74.21875 
Q 39.75 74.21875 46.484375 68.546875 
Q 53.21875 62.890625 53.21875 53.421875 
Q 53.21875 48.921875 51.53125 44.890625 
Q 49.859375 40.875 45.40625 35.40625 
Q 44.1875 33.984375 37.640625 27.21875 
Q 31.109375 20.453125 19.1875 8.296875 
z
" id="DejaVuSans-50"/>
       <path d="M 31.78125 66.40625 
Q 24.171875 66.40625 20.328125 58.90625 
Q 16.5 51.421875 16.5 36.375 
Q 16.5 21.390625 20.328125 13.890625 
Q 24.171875 6.390625 31.78125 6.390625 
Q 39.453125 6.390625 43.28125 13.890625 
Q 47.125 21.390625 47.125 36.375 
Q 47.125 51.421875 43.28125 58.90625 
Q 39.453125 66.40625 31.78125 66.40625 
z
M 31.78125 74.21875 
Q 44.046875 74.21875 50.515625 64.515625 
Q 56.984375 54.828125 56.984375 36.375 
Q 56.984375 17.96875 50.515625 8.265625 
Q 44.046875 -1.421875 31.78125 -1.421875 
Q 19.53125 -1.421875 13.0625 8.265625 
Q 6.59375 17.96875 6.59375 36.375 
Q 6.59375 54.828125 13.0625 64.515625 
Q 19.53125 74.21875 31.78125 74.21875 
z
" id="DejaVuSans-48"/>
      </defs>
      <g transform="translate(81.8525 275.716563)scale(0.22 -0.22)">
       <use xlink:href="#DejaVuSans-50"/>
       <use x="63.623047" xlink:href="#DejaVuSans-48"/>
      </g>
     </g>
    </g>
    <g id="xtick_2">
     <g id="line2d_2">
      <g>
       <use style="stroke:#000000;stroke-width:0.8;" x="179.55" xlink:href="#ma2d2208d4f" y="252"/>
      </g>
     </g>
     <g id="text_2">
      <!-- 40 -->
      <defs>
       <path d="M 37.796875 64.3125 
L 12.890625 25.390625 
L 37.796875 25.390625 
z
M 35.203125 72.90625 
L 47.609375 72.90625 
L 47.609375 25.390625 
L 58.015625 25.390625 
L 58.015625 17.1875 
L 47.609375 17.1875 
L 47.609375 0 
L 37.796875 0 
L 37.796875 17.1875 
L 4.890625 17.1875 
L 4.890625 26.703125 
z
" id="DejaVuSans-52"/>
      </defs>
      <g transform="translate(165.5525 275.716563)scale(0.22 -0.22)">
       <use xlink:href="#DejaVuSans-52"/>
       <use x="63.623047" xlink:href="#DejaVuSans-48"/>
      </g>
     </g>
    </g>
    <g id="xtick_3">
     <g id="line2d_3">
      <g>
       <use style="stroke:#000000;stroke-width:0.8;" x="263.25" xlink:href="#ma2d2208d4f" y="252"/>
      </g>
     </g>
     <g id="text_3">
      <!-- 60 -->
      <defs>
       <path d="M 33.015625 40.375 
Q 26.375 40.375 22.484375 35.828125 
Q 18.609375 31.296875 18.609375 23.390625 
Q 18.609375 15.53125 22.484375 10.953125 
Q 26.375 6.390625 33.015625 6.390625 
Q 39.65625 6.390625 43.53125 10.953125 
Q 47.40625 15.53125 47.40625 23.390625 
Q 47.40625 31.296875 43.53125 35.828125 
Q 39.65625 40.375 33.015625 40.375 
z
M 52.59375 71.296875 
L 52.59375 62.3125 
Q 48.875 64.0625 45.09375 64.984375 
Q 41.3125 65.921875 37.59375 65.921875 
Q 27.828125 65.921875 22.671875 59.328125 
Q 17.53125 52.734375 16.796875 39.40625 
Q 19.671875 43.65625 24.015625 45.921875 
Q 28.375 48.1875 33.59375 48.1875 
Q 44.578125 48.1875 50.953125 41.515625 
Q 57.328125 34.859375 57.328125 23.390625 
Q 57.328125 12.15625 50.6875 5.359375 
Q 44.046875 -1.421875 33.015625 -1.421875 
Q 20.359375 -1.421875 13.671875 8.265625 
Q 6.984375 17.96875 6.984375 36.375 
Q 6.984375 53.65625 15.1875 63.9375 
Q 23.390625 74.21875 37.203125 74.21875 
Q 40.921875 74.21875 44.703125 73.484375 
Q 48.484375 72.75 52.59375 71.296875 
z
" id="DejaVuSans-54"/>
      </defs>
      <g transform="translate(249.2525 275.716563)scale(0.22 -0.22)">
       <use xlink:href="#DejaVuSans-54"/>
       <use x="63.623047" xlink:href="#DejaVuSans-48"/>
      </g>
     </g>
    </g>
    <g id="xtick_4">
     <g id="line2d_4">
      <g>
       <use style="stroke:#000000;stroke-width:0.8;" x="346.95" xlink:href="#ma2d2208d4f" y="252"/>
      </g>
     </g>
     <g id="text_4">
      <!-- 80 -->
      <defs>
       <path d="M 31.78125 34.625 
Q 24.75 34.625 20.71875 30.859375 
Q 16.703125 27.09375 16.703125 20.515625 
Q 16.703125 13.921875 20.71875 10.15625 
Q 24.75 6.390625 31.78125 6.390625 
Q 38.8125 6.390625 42.859375 10.171875 
Q 46.921875 13.96875 46.921875 20.515625 
Q 46.921875 27.09375 42.890625 30.859375 
Q 38.875 34.625 31.78125 34.625 
z
M 21.921875 38.8125 
Q 15.578125 40.375 12.03125 44.71875 
Q 8.5 49.078125 8.5 55.328125 
Q 8.5 64.0625 14.71875 69.140625 
Q 20.953125 74.21875 31.78125 74.21875 
Q 42.671875 74.21875 48.875 69.140625 
Q 55.078125 64.0625 55.078125 55.328125 
Q 55.078125 49.078125 51.53125 44.71875 
Q 48 40.375 41.703125 38.8125 
Q 48.828125 37.15625 52.796875 32.3125 
Q 56.78125 27.484375 56.78125 20.515625 
Q 56.78125 9.90625 50.3125 4.234375 
Q 43.84375 -1.421875 31.78125 -1.421875 
Q 19.734375 -1.421875 13.25 4.234375 
Q 6.78125 9.90625 6.78125 20.515625 
Q 6.78125 27.484375 10.78125 32.3125 
Q 14.796875 37.15625 21.921875 38.8125 
z
M 18.3125 54.390625 
Q 18.3125 48.734375 21.84375 45.5625 
Q 25.390625 42.390625 31.78125 42.390625 
Q 38.140625 42.390625 41.71875 45.5625 
Q 45.3125 48.734375 45.3125 54.390625 
Q 45.3125 60.0625 41.71875 63.234375 
Q 38.140625 66.40625 31.78125 66.40625 
Q 25.390625 66.40625 21.84375 63.234375 
Q 18.3125 60.0625 18.3125 54.390625 
z
" id="DejaVuSans-56"/>
      </defs>
      <g transform="translate(332.9525 275.716563)scale(0.22 -0.22)">
       <use xlink:href="#DejaVuSans-56"/>
       <use x="63.623047" xlink:href="#DejaVuSans-48"/>
      </g>
     </g>
    </g>
    <g id="text_5">
     <!-- chronological age (y) -->
     <defs>
      <path d="M 48.78125 52.59375 
L 48.78125 44.1875 
Q 44.96875 46.296875 41.140625 47.34375 
Q 37.3125 48.390625 33.40625 48.390625 
Q 24.65625 48.390625 19.8125 42.84375 
Q 14.984375 37.3125 14.984375 27.296875 
Q 14.984375 17.28125 19.8125 11.734375 
Q 24.65625 6.203125 33.40625 6.203125 
Q 37.3125 6.203125 41.140625 7.25 
Q 44.96875 8.296875 48.78125 10.40625 
L 48.78125 2.09375 
Q 45.015625 0.34375 40.984375 -0.53125 
Q 36.96875 -1.421875 32.421875 -1.421875 
Q 20.0625 -1.421875 12.78125 6.34375 
Q 5.515625 14.109375 5.515625 27.296875 
Q 5.515625 40.671875 12.859375 48.328125 
Q 20.21875 56 33.015625 56 
Q 37.15625 56 41.109375 55.140625 
Q 45.0625 54.296875 48.78125 52.59375 
z
" id="DejaVuSans-99"/>
      <path d="M 54.890625 33.015625 
L 54.890625 0 
L 45.90625 0 
L 45.90625 32.71875 
Q 45.90625 40.484375 42.875 44.328125 
Q 39.84375 48.1875 33.796875 48.1875 
Q 26.515625 48.1875 22.3125 43.546875 
Q 18.109375 38.921875 18.109375 30.90625 
L 18.109375 0 
L 9.078125 0 
L 9.078125 75.984375 
L 18.109375 75.984375 
L 18.109375 46.1875 
Q 21.34375 51.125 25.703125 53.5625 
Q 30.078125 56 35.796875 56 
Q 45.21875 56 50.046875 50.171875 
Q 54.890625 44.34375 54.890625 33.015625 
z
" id="DejaVuSans-104"/>
      <path d="M 41.109375 46.296875 
Q 39.59375 47.171875 37.8125 47.578125 
Q 36.03125 48 33.890625 48 
Q 26.265625 48 22.1875 43.046875 
Q 18.109375 38.09375 18.109375 28.8125 
L 18.109375 0 
L 9.078125 0 
L 9.078125 54.6875 
L 18.109375 54.6875 
L 18.109375 46.1875 
Q 20.953125 51.171875 25.484375 53.578125 
Q 30.03125 56 36.53125 56 
Q 37.453125 56 38.578125 55.875 
Q 39.703125 55.765625 41.0625 55.515625 
z
" id="DejaVuSans-114"/>
      <path d="M 30.609375 48.390625 
Q 23.390625 48.390625 19.1875 42.75 
Q 14.984375 37.109375 14.984375 27.296875 
Q 14.984375 17.484375 19.15625 11.84375 
Q 23.34375 6.203125 30.609375 6.203125 
Q 37.796875 6.203125 41.984375 11.859375 
Q 46.1875 17.53125 46.1875 27.296875 
Q 46.1875 37.015625 41.984375 42.703125 
Q 37.796875 48.390625 30.609375 48.390625 
z
M 30.609375 56 
Q 42.328125 56 49.015625 48.375 
Q 55.71875 40.765625 55.71875 27.296875 
Q 55.71875 13.875 49.015625 6.21875 
Q 42.328125 -1.421875 30.609375 -1.421875 
Q 18.84375 -1.421875 12.171875 6.21875 
Q 5.515625 13.875 5.515625 27.296875 
Q 5.515625 40.765625 12.171875 48.375 
Q 18.84375 56 30.609375 56 
z
" id="DejaVuSans-111"/>
      <path d="M 54.890625 33.015625 
L 54.890625 0 
L 45.90625 0 
L 45.90625 32.71875 
Q 45.90625 40.484375 42.875 44.328125 
Q 39.84375 48.1875 33.796875 48.1875 
Q 26.515625 48.1875 22.3125 43.546875 
Q 18.109375 38.921875 18.109375 30.90625 
L 18.109375 0 
L 9.078125 0 
L 9.078125 54.6875 
L 18.109375 54.6875 
L 18.109375 46.1875 
Q 21.34375 51.125 25.703125 53.5625 
Q 30.078125 56 35.796875 56 
Q 45.21875 56 50.046875 50.171875 
Q 54.890625 44.34375 54.890625 33.015625 
z
" id="DejaVuSans-110"/>
      <path d="M 9.421875 75.984375 
L 18.40625 75.984375 
L 18.40625 0 
L 9.421875 0 
z
" id="DejaVuSans-108"/>
      <path d="M 45.40625 27.984375 
Q 45.40625 37.75 41.375 43.109375 
Q 37.359375 48.484375 30.078125 48.484375 
Q 22.859375 48.484375 18.828125 43.109375 
Q 14.796875 37.75 14.796875 27.984375 
Q 14.796875 18.265625 18.828125 12.890625 
Q 22.859375 7.515625 30.078125 7.515625 
Q 37.359375 7.515625 41.375 12.890625 
Q 45.40625 18.265625 45.40625 27.984375 
z
M 54.390625 6.78125 
Q 54.390625 -7.171875 48.1875 -13.984375 
Q 42 -20.796875 29.203125 -20.796875 
Q 24.46875 -20.796875 20.265625 -20.09375 
Q 16.0625 -19.390625 12.109375 -17.921875 
L 12.109375 -9.1875 
Q 16.0625 -11.328125 19.921875 -12.34375 
Q 23.78125 -13.375 27.78125 -13.375 
Q 36.625 -13.375 41.015625 -8.765625 
Q 45.40625 -4.15625 45.40625 5.171875 
L 45.40625 9.625 
Q 42.625 4.78125 38.28125 2.390625 
Q 33.9375 0 27.875 0 
Q 17.828125 0 11.671875 7.65625 
Q 5.515625 15.328125 5.515625 27.984375 
Q 5.515625 40.671875 11.671875 48.328125 
Q 17.828125 56 27.875 56 
Q 33.9375 56 38.28125 53.609375 
Q 42.625 51.21875 45.40625 46.390625 
L 45.40625 54.6875 
L 54.390625 54.6875 
z
" id="DejaVuSans-103"/>
      <path d="M 9.421875 54.6875 
L 18.40625 54.6875 
L 18.40625 0 
L 9.421875 0 
z
M 9.421875 75.984375 
L 18.40625 75.984375 
L 18.40625 64.59375 
L 9.421875 64.59375 
z
" id="DejaVuSans-105"/>
      <path d="M 34.28125 27.484375 
Q 23.390625 27.484375 19.1875 25 
Q 14.984375 22.515625 14.984375 16.5 
Q 14.984375 11.71875 18.140625 8.90625 
Q 21.296875 6.109375 26.703125 6.109375 
Q 34.1875 6.109375 38.703125 11.40625 
Q 43.21875 16.703125 43.21875 25.484375 
L 43.21875 27.484375 
z
M 52.203125 31.203125 
L 52.203125 0 
L 43.21875 0 
L 43.21875 8.296875 
Q 40.140625 3.328125 35.546875 0.953125 
Q 30.953125 -1.421875 24.3125 -1.421875 
Q 15.921875 -1.421875 10.953125 3.296875 
Q 6 8.015625 6 15.921875 
Q 6 25.140625 12.171875 29.828125 
Q 18.359375 34.515625 30.609375 34.515625 
L 43.21875 34.515625 
L 43.21875 35.40625 
Q 43.21875 41.609375 39.140625 45 
Q 35.0625 48.390625 27.6875 48.390625 
Q 23 48.390625 18.546875 47.265625 
Q 14.109375 46.140625 10.015625 43.890625 
L 10.015625 52.203125 
Q 14.9375 54.109375 19.578125 55.046875 
Q 24.21875 56 28.609375 56 
Q 40.484375 56 46.34375 49.84375 
Q 52.203125 43.703125 52.203125 31.203125 
z
" id="DejaVuSans-97"/>
      <path id="DejaVuSans-32"/>
      <path d="M 56.203125 29.59375 
L 56.203125 25.203125 
L 14.890625 25.203125 
Q 15.484375 15.921875 20.484375 11.0625 
Q 25.484375 6.203125 34.421875 6.203125 
Q 39.59375 6.203125 44.453125 7.46875 
Q 49.3125 8.734375 54.109375 11.28125 
L 54.109375 2.78125 
Q 49.265625 0.734375 44.1875 -0.34375 
Q 39.109375 -1.421875 33.890625 -1.421875 
Q 20.796875 -1.421875 13.15625 6.1875 
Q 5.515625 13.8125 5.515625 26.8125 
Q 5.515625 40.234375 12.765625 48.109375 
Q 20.015625 56 32.328125 56 
Q 43.359375 56 49.78125 48.890625 
Q 56.203125 41.796875 56.203125 29.59375 
z
M 47.21875 32.234375 
Q 47.125 39.59375 43.09375 43.984375 
Q 39.0625 48.390625 32.421875 48.390625 
Q 24.90625 48.390625 20.390625 44.140625 
Q 15.875 39.890625 15.1875 32.171875 
z
" id="DejaVuSans-101"/>
      <path d="M 31 75.875 
Q 24.46875 64.65625 21.28125 53.65625 
Q 18.109375 42.671875 18.109375 31.390625 
Q 18.109375 20.125 21.3125 9.0625 
Q 24.515625 -2 31 -13.1875 
L 23.1875 -13.1875 
Q 15.875 -1.703125 12.234375 9.375 
Q 8.59375 20.453125 8.59375 31.390625 
Q 8.59375 42.28125 12.203125 53.3125 
Q 15.828125 64.359375 23.1875 75.875 
z
" id="DejaVuSans-40"/>
      <path d="M 32.171875 -5.078125 
Q 28.375 -14.84375 24.75 -17.8125 
Q 21.140625 -20.796875 15.09375 -20.796875 
L 7.90625 -20.796875 
L 7.90625 -13.28125 
L 13.1875 -13.28125 
Q 16.890625 -13.28125 18.9375 -11.515625 
Q 21 -9.765625 23.484375 -3.21875 
L 25.09375 0.875 
L 2.984375 54.6875 
L 12.5 54.6875 
L 29.59375 11.921875 
L 46.6875 54.6875 
L 56.203125 54.6875 
z
" id="DejaVuSans-121"/>
      <path d="M 8.015625 75.875 
L 15.828125 75.875 
Q 23.140625 64.359375 26.78125 53.3125 
Q 30.421875 42.28125 30.421875 31.390625 
Q 30.421875 20.453125 26.78125 9.375 
Q 23.140625 -1.703125 15.828125 -13.1875 
L 8.015625 -13.1875 
Q 14.5 -2 17.703125 9.0625 
Q 20.90625 20.125 20.90625 31.390625 
Q 20.90625 42.671875 17.703125 53.65625 
Q 14.5 64.65625 8.015625 75.875 
z
" id="DejaVuSans-41"/>
     </defs>
     <g transform="translate(105.179844 301.008438)scale(0.22 -0.22)">
      <use xlink:href="#DejaVuSans-99"/>
      <use x="54.980469" xlink:href="#DejaVuSans-104"/>
      <use x="118.359375" xlink:href="#DejaVuSans-114"/>
      <use x="159.441406" xlink:href="#DejaVuSans-111"/>
      <use x="220.623047" xlink:href="#DejaVuSans-110"/>
      <use x="284.001953" xlink:href="#DejaVuSans-111"/>
      <use x="345.183594" xlink:href="#DejaVuSans-108"/>
      <use x="372.966797" xlink:href="#DejaVuSans-111"/>
      <use x="434.148438" xlink:href="#DejaVuSans-103"/>
      <use x="497.625" xlink:href="#DejaVuSans-105"/>
      <use x="525.408203" xlink:href="#DejaVuSans-99"/>
      <use x="580.388672" xlink:href="#DejaVuSans-97"/>
      <use x="641.667969" xlink:href="#DejaVuSans-108"/>
      <use x="669.451172" xlink:href="#DejaVuSans-32"/>
      <use x="701.238281" xlink:href="#DejaVuSans-97"/>
      <use x="762.517578" xlink:href="#DejaVuSans-103"/>
      <use x="825.994141" xlink:href="#DejaVuSans-101"/>
      <use x="887.517578" xlink:href="#DejaVuSans-32"/>
      <use x="919.304688" xlink:href="#DejaVuSans-40"/>
      <use x="958.318359" xlink:href="#DejaVuSans-121"/>
      <use x="1017.498047" xlink:href="#DejaVuSans-41"/>
     </g>
    </g>
   </g>
   <g id="matplotlib.axis_2">
    <g id="ytick_1">
     <g id="line2d_5">
      <defs>
       <path d="M 0 0 
L -3.5 0 
" id="m931a1b2c18" style="stroke:#000000;stroke-width:0.8;"/>
      </defs>
      <g>
       <use style="stroke:#000000;stroke-width:0.8;" x="54" xlink:href="#m931a1b2c18" y="240.301657"/>
      </g>
     </g>
     <g id="text_6">
      <!-- 20 -->
      <g transform="translate(19.005 248.659938)scale(0.22 -0.22)">
       <use xlink:href="#DejaVuSans-50"/>
       <use x="63.623047" xlink:href="#DejaVuSans-48"/>
      </g>
     </g>
    </g>
    <g id="ytick_2">
     <g id="line2d_6">
      <g>
       <use style="stroke:#000000;stroke-width:0.8;" x="54" xlink:href="#m931a1b2c18" y="182.548025"/>
      </g>
     </g>
     <g id="text_7">
      <!-- 40 -->
      <g transform="translate(19.005 190.906307)scale(0.22 -0.22)">
       <use xlink:href="#DejaVuSans-52"/>
       <use x="63.623047" xlink:href="#DejaVuSans-48"/>
      </g>
     </g>
    </g>
    <g id="ytick_3">
     <g id="line2d_7">
      <g>
       <use style="stroke:#000000;stroke-width:0.8;" x="54" xlink:href="#m931a1b2c18" y="124.794394"/>
      </g>
     </g>
     <g id="text_8">
      <!-- 60 -->
      <g transform="translate(19.005 133.152675)scale(0.22 -0.22)">
       <use xlink:href="#DejaVuSans-54"/>
       <use x="63.623047" xlink:href="#DejaVuSans-48"/>
      </g>
     </g>
    </g>
    <g id="ytick_4">
     <g id="line2d_8">
      <g>
       <use style="stroke:#000000;stroke-width:0.8;" x="54" xlink:href="#m931a1b2c18" y="67.040762"/>
      </g>
     </g>
     <g id="text_9">
      <!-- 80 -->
      <g transform="translate(19.005 75.399044)scale(0.22 -0.22)">
       <use xlink:href="#DejaVuSans-56"/>
       <use x="63.623047" xlink:href="#DejaVuSans-48"/>
      </g>
     </g>
    </g>
    <g id="text_10">
     <!-- predicted age (y) -->
     <defs>
      <path d="M 18.109375 8.203125 
L 18.109375 -20.796875 
L 9.078125 -20.796875 
L 9.078125 54.6875 
L 18.109375 54.6875 
L 18.109375 46.390625 
Q 20.953125 51.265625 25.265625 53.625 
Q 29.59375 56 35.59375 56 
Q 45.5625 56 51.78125 48.09375 
Q 58.015625 40.1875 58.015625 27.296875 
Q 58.015625 14.40625 51.78125 6.484375 
Q 45.5625 -1.421875 35.59375 -1.421875 
Q 29.59375 -1.421875 25.265625 0.953125 
Q 20.953125 3.328125 18.109375 8.203125 
z
M 48.6875 27.296875 
Q 48.6875 37.203125 44.609375 42.84375 
Q 40.53125 48.484375 33.40625 48.484375 
Q 26.265625 48.484375 22.1875 42.84375 
Q 18.109375 37.203125 18.109375 27.296875 
Q 18.109375 17.390625 22.1875 11.75 
Q 26.265625 6.109375 33.40625 6.109375 
Q 40.53125 6.109375 44.609375 11.75 
Q 48.6875 17.390625 48.6875 27.296875 
z
" id="DejaVuSans-112"/>
      <path d="M 45.40625 46.390625 
L 45.40625 75.984375 
L 54.390625 75.984375 
L 54.390625 0 
L 45.40625 0 
L 45.40625 8.203125 
Q 42.578125 3.328125 38.25 0.953125 
Q 33.9375 -1.421875 27.875 -1.421875 
Q 17.96875 -1.421875 11.734375 6.484375 
Q 5.515625 14.40625 5.515625 27.296875 
Q 5.515625 40.1875 11.734375 48.09375 
Q 17.96875 56 27.875 56 
Q 33.9375 56 38.25 53.625 
Q 42.578125 51.265625 45.40625 46.390625 
z
M 14.796875 27.296875 
Q 14.796875 17.390625 18.875 11.75 
Q 22.953125 6.109375 30.078125 6.109375 
Q 37.203125 6.109375 41.296875 11.75 
Q 45.40625 17.390625 45.40625 27.296875 
Q 45.40625 37.203125 41.296875 42.84375 
Q 37.203125 48.484375 30.078125 48.484375 
Q 22.953125 48.484375 18.875 42.84375 
Q 14.796875 37.203125 14.796875 27.296875 
z
" id="DejaVuSans-100"/>
      <path d="M 18.3125 70.21875 
L 18.3125 54.6875 
L 36.8125 54.6875 
L 36.8125 47.703125 
L 18.3125 47.703125 
L 18.3125 18.015625 
Q 18.3125 11.328125 20.140625 9.421875 
Q 21.96875 7.515625 27.59375 7.515625 
L 36.8125 7.515625 
L 36.8125 0 
L 27.59375 0 
Q 17.1875 0 13.234375 3.875 
Q 9.28125 7.765625 9.28125 18.015625 
L 9.28125 47.703125 
L 2.6875 47.703125 
L 2.6875 54.6875 
L 9.28125 54.6875 
L 9.28125 70.21875 
z
" id="DejaVuSans-116"/>
     </defs>
     <g transform="translate(10.429687 238.280469)rotate(-90)scale(0.22 -0.22)">
      <use xlink:href="#DejaVuSans-112"/>
      <use x="63.476562" xlink:href="#DejaVuSans-114"/>
      <use x="104.558594" xlink:href="#DejaVuSans-101"/>
      <use x="166.082031" xlink:href="#DejaVuSans-100"/>
      <use x="229.558594" xlink:href="#DejaVuSans-105"/>
      <use x="257.341797" xlink:href="#DejaVuSans-99"/>
      <use x="312.322266" xlink:href="#DejaVuSans-116"/>
      <use x="351.53125" xlink:href="#DejaVuSans-101"/>
      <use x="413.054688" xlink:href="#DejaVuSans-100"/>
      <use x="476.53125" xlink:href="#DejaVuSans-32"/>
      <use x="508.318359" xlink:href="#DejaVuSans-97"/>
      <use x="569.597656" xlink:href="#DejaVuSans-103"/>
      <use x="633.074219" xlink:href="#DejaVuSans-101"/>
      <use x="694.597656" xlink:href="#DejaVuSans-32"/>
      <use x="726.384766" xlink:href="#DejaVuSans-40"/>
      <use x="765.398438" xlink:href="#DejaVuSans-121"/>
      <use x="824.578125" xlink:href="#DejaVuSans-41"/>
     </g>
    </g>
   </g>
   <g id="LineCollection_1">
    <path clip-path="url(#pfa2b921f32)" d="M 299.250732 134.114245 
L 299.250732 78.443934 
" style="fill:none;stroke:#1f77b4;stroke-opacity:0.6;stroke-width:1.5;"/>
    <path clip-path="url(#pfa2b921f32)" d="M 145.439817 191.408954 
L 145.439817 149.788955 
" style="fill:none;stroke:#1f77b4;stroke-opacity:0.6;stroke-width:1.5;"/>
    <path clip-path="url(#pfa2b921f32)" d="M 293.934263 131.200426 
L 293.934263 83.201894 
" style="fill:none;stroke:#1f77b4;stroke-opacity:0.6;stroke-width:1.5;"/>
    <path clip-path="url(#pfa2b921f32)" d="M 111.467128 234.258815 
L 111.467128 188.129307 
" style="fill:none;stroke:#1f77b4;stroke-opacity:0.6;stroke-width:1.5;"/>
    <path clip-path="url(#pfa2b921f32)" d="M 133.535051 223.159005 
L 133.535051 186.325528 
" style="fill:none;stroke:#1f77b4;stroke-opacity:0.6;stroke-width:1.5;"/>
    <path clip-path="url(#pfa2b921f32)" d="M 155.625892 231.513417 
L 155.625892 204.240022 
" style="fill:none;stroke:#1f77b4;stroke-opacity:0.6;stroke-width:1.5;"/>
    <path clip-path="url(#pfa2b921f32)" d="M 263.708309 122.776793 
L 263.708309 74.816152 
" style="fill:none;stroke:#1f77b4;stroke-opacity:0.6;stroke-width:1.5;"/>
    <path clip-path="url(#pfa2b921f32)" d="M 172.159646 173.758647 
L 172.159646 145.125705 
" style="fill:none;stroke:#1f77b4;stroke-opacity:0.6;stroke-width:1.5;"/>
    <path clip-path="url(#pfa2b921f32)" d="M 292.158308 144.178477 
L 292.158308 101.788293 
" style="fill:none;stroke:#1f77b4;stroke-opacity:0.6;stroke-width:1.5;"/>
    <path clip-path="url(#pfa2b921f32)" d="M 232.657389 159.832975 
L 232.657389 102.170655 
" style="fill:none;stroke:#1f77b4;stroke-opacity:0.6;stroke-width:1.5;"/>
    <path clip-path="url(#pfa2b921f32)" d="M 231.030366 202.761663 
L 231.030366 160.799898 
" style="fill:none;stroke:#1f77b4;stroke-opacity:0.6;stroke-width:1.5;"/>
    <path clip-path="url(#pfa2b921f32)" d="M 151.718754 216.207521 
L 151.718754 175.606302 
" style="fill:none;stroke:#1f77b4;stroke-opacity:0.6;stroke-width:1.5;"/>
    <path clip-path="url(#pfa2b921f32)" d="M 274.982892 132.520236 
L 274.982892 86.718826 
" style="fill:none;stroke:#1f77b4;stroke-opacity:0.6;stroke-width:1.5;"/>
    <path clip-path="url(#pfa2b921f32)" d="M 328.674629 109.769841 
L 328.674629 64.730296 
" style="fill:none;stroke:#1f77b4;stroke-opacity:0.6;stroke-width:1.5;"/>
    <path clip-path="url(#pfa2b921f32)" d="M 190.045435 171.72841 
L 190.045435 128.562768 
" style="fill:none;stroke:#1f77b4;stroke-opacity:0.6;stroke-width:1.5;"/>
    <path clip-path="url(#pfa2b921f32)" d="M 200.609629 218.170399 
L 200.609629 183.229427 
" style="fill:none;stroke:#1f77b4;stroke-opacity:0.6;stroke-width:1.5;"/>
    <path clip-path="url(#pfa2b921f32)" d="M 176.101171 174.211334 
L 176.101171 128.96628 
" style="fill:none;stroke:#1f77b4;stroke-opacity:0.6;stroke-width:1.5;"/>
    <path clip-path="url(#pfa2b921f32)" d="M 187.45596 200.10097 
L 187.45596 155.253987 
" style="fill:none;stroke:#1f77b4;stroke-opacity:0.6;stroke-width:1.5;"/>
    <path clip-path="url(#pfa2b921f32)" d="M 125.205154 236.997175 
L 125.205154 185.727321 
" style="fill:none;stroke:#1f77b4;stroke-opacity:0.6;stroke-width:1.5;"/>
    <path clip-path="url(#pfa2b921f32)" d="M 297.29144 134.230101 
L 297.29144 81.76952 
" style="fill:none;stroke:#1f77b4;stroke-opacity:0.6;stroke-width:1.5;"/>
    <path clip-path="url(#pfa2b921f32)" d="M 314.753291 123.84893 
L 314.753291 82.270178 
" style="fill:none;stroke:#1f77b4;stroke-opacity:0.6;stroke-width:1.5;"/>
    <path clip-path="url(#pfa2b921f32)" d="M 285.890833 150.512837 
L 285.890833 110.080451 
" style="fill:none;stroke:#1f77b4;stroke-opacity:0.6;stroke-width:1.5;"/>
    <path clip-path="url(#pfa2b921f32)" d="M 262.344828 154.509621 
L 262.344828 99.410122 
" style="fill:none;stroke:#1f77b4;stroke-opacity:0.6;stroke-width:1.5;"/>
    <path clip-path="url(#pfa2b921f32)" d="M 132.973612 231.566216 
L 132.973612 178.937754 
" style="fill:none;stroke:#1f77b4;stroke-opacity:0.6;stroke-width:1.5;"/>
    <path clip-path="url(#pfa2b921f32)" d="M 284.573155 121.597636 
L 284.573155 49.892373 
" style="fill:none;stroke:#1f77b4;stroke-opacity:0.6;stroke-width:1.5;"/>
    <path clip-path="url(#pfa2b921f32)" d="M 138.461954 204.149234 
L 138.461954 153.069937 
" style="fill:none;stroke:#1f77b4;stroke-opacity:0.6;stroke-width:1.5;"/>
    <path clip-path="url(#pfa2b921f32)" d="M 111.948354 219.668281 
L 111.948354 172.602246 
" style="fill:none;stroke:#1f77b4;stroke-opacity:0.6;stroke-width:1.5;"/>
    <path clip-path="url(#pfa2b921f32)" d="M 277.446343 145.92701 
L 277.446343 104.177387 
" style="fill:none;stroke:#1f77b4;stroke-opacity:0.6;stroke-width:1.5;"/>
    <path clip-path="url(#pfa2b921f32)" d="M 188.842365 206.582924 
L 188.842365 158.224243 
" style="fill:none;stroke:#1f77b4;stroke-opacity:0.6;stroke-width:1.5;"/>
    <path clip-path="url(#pfa2b921f32)" d="M 279.222315 146.246695 
L 279.222315 102.585421 
" style="fill:none;stroke:#1f77b4;stroke-opacity:0.6;stroke-width:1.5;"/>
    <path clip-path="url(#pfa2b921f32)" d="M 114.02224 242.116364 
L 114.02224 210.612968 
" style="fill:none;stroke:#1f77b4;stroke-opacity:0.6;stroke-width:1.5;"/>
    <path clip-path="url(#pfa2b921f32)" d="M 263.55936 157.189331 
L 263.55936 118.217547 
" style="fill:none;stroke:#1f77b4;stroke-opacity:0.6;stroke-width:1.5;"/>
    <path clip-path="url(#pfa2b921f32)" d="M 205.582365 197.895969 
L 205.582365 160.28101 
" style="fill:none;stroke:#1f77b4;stroke-opacity:0.6;stroke-width:1.5;"/>
    <path clip-path="url(#pfa2b921f32)" d="M 315.956376 129.456061 
L 315.956376 93.73516 
" style="fill:none;stroke:#1f77b4;stroke-opacity:0.6;stroke-width:1.5;"/>
    <path clip-path="url(#pfa2b921f32)" d="M 184.28212 219.520061 
L 184.28212 174.01775 
" style="fill:none;stroke:#1f77b4;stroke-opacity:0.6;stroke-width:1.5;"/>
    <path clip-path="url(#pfa2b921f32)" d="M 239.03944 162.994156 
L 239.03944 121.775112 
" style="fill:none;stroke:#1f77b4;stroke-opacity:0.6;stroke-width:1.5;"/>
    <path clip-path="url(#pfa2b921f32)" d="M 165.617183 232.992263 
L 165.617183 200.544226 
" style="fill:none;stroke:#1f77b4;stroke-opacity:0.6;stroke-width:1.5;"/>
    <path clip-path="url(#pfa2b921f32)" d="M 143.434683 174.452227 
L 143.434683 135.95769 
" style="fill:none;stroke:#1f77b4;stroke-opacity:0.6;stroke-width:1.5;"/>
    <path clip-path="url(#pfa2b921f32)" d="M 344.498011 107.205657 
L 344.498011 58.661024 
" style="fill:none;stroke:#1f77b4;stroke-opacity:0.6;stroke-width:1.5;"/>
    <path clip-path="url(#pfa2b921f32)" d="M 153.128069 200.80452 
L 153.128069 150.120157 
" style="fill:none;stroke:#1f77b4;stroke-opacity:0.6;stroke-width:1.5;"/>
    <path clip-path="url(#pfa2b921f32)" d="M 140.512914 188.574003 
L 140.512914 132.158094 
" style="fill:none;stroke:#1f77b4;stroke-opacity:0.6;stroke-width:1.5;"/>
    <path clip-path="url(#pfa2b921f32)" d="M 136.605769 224.631684 
L 136.605769 182.913023 
" style="fill:none;stroke:#1f77b4;stroke-opacity:0.6;stroke-width:1.5;"/>
    <path clip-path="url(#pfa2b921f32)" d="M 308.073326 138.505827 
L 308.073326 76.418186 
" style="fill:none;stroke:#1f77b4;stroke-opacity:0.6;stroke-width:1.5;"/>
    <path clip-path="url(#pfa2b921f32)" d="M 266.996742 151.596966 
L 266.996742 108.74087 
" style="fill:none;stroke:#1f77b4;stroke-opacity:0.6;stroke-width:1.5;"/>
    <path clip-path="url(#pfa2b921f32)" d="M 139.447331 212.206279 
L 139.447331 164.114787 
" style="fill:none;stroke:#1f77b4;stroke-opacity:0.6;stroke-width:1.5;"/>
    <path clip-path="url(#pfa2b921f32)" d="M 262.803137 143.272262 
L 262.803137 99.348718 
" style="fill:none;stroke:#1f77b4;stroke-opacity:0.6;stroke-width:1.5;"/>
    <path clip-path="url(#pfa2b921f32)" d="M 240.689388 159.307818 
L 240.689388 113.791195 
" style="fill:none;stroke:#1f77b4;stroke-opacity:0.6;stroke-width:1.5;"/>
    <path clip-path="url(#pfa2b921f32)" d="M 200.437755 127.217966 
L 200.437755 97.78065 
" style="fill:none;stroke:#1f77b4;stroke-opacity:0.6;stroke-width:1.5;"/>
    <path clip-path="url(#pfa2b921f32)" d="M 320.012479 127.487124 
L 320.012479 64.718092 
" style="fill:none;stroke:#1f77b4;stroke-opacity:0.6;stroke-width:1.5;"/>
    <path clip-path="url(#pfa2b921f32)" d="M 165.766132 213.993118 
L 165.766132 178.173547 
" style="fill:none;stroke:#1f77b4;stroke-opacity:0.6;stroke-width:1.5;"/>
    <path clip-path="url(#pfa2b921f32)" d="M 184.59148 230.414197 
L 184.59148 186.149555 
" style="fill:none;stroke:#1f77b4;stroke-opacity:0.6;stroke-width:1.5;"/>
    <path clip-path="url(#pfa2b921f32)" d="M 306.136927 130.870266 
L 306.136927 85.471038 
" style="fill:none;stroke:#1f77b4;stroke-opacity:0.6;stroke-width:1.5;"/>
    <path clip-path="url(#pfa2b921f32)" d="M 267.099857 140.312619 
L 267.099857 92.372543 
" style="fill:none;stroke:#1f77b4;stroke-opacity:0.6;stroke-width:1.5;"/>
    <path clip-path="url(#pfa2b921f32)" d="M 254.312829 151.133193 
L 254.312829 119.906595 
" style="fill:none;stroke:#1f77b4;stroke-opacity:0.6;stroke-width:1.5;"/>
    <path clip-path="url(#pfa2b921f32)" d="M 277.56092 149.823002 
L 277.56092 109.200422 
" style="fill:none;stroke:#1f77b4;stroke-opacity:0.6;stroke-width:1.5;"/>
    <path clip-path="url(#pfa2b921f32)" d="M 250.978578 152.361404 
L 250.978578 103.57258 
" style="fill:none;stroke:#1f77b4;stroke-opacity:0.6;stroke-width:1.5;"/>
    <path clip-path="url(#pfa2b921f32)" d="M 217.280886 196.251889 
L 217.280886 162.072758 
" style="fill:none;stroke:#1f77b4;stroke-opacity:0.6;stroke-width:1.5;"/>
    <path clip-path="url(#pfa2b921f32)" d="M 191.981834 173.10753 
L 191.981834 128.229527 
" style="fill:none;stroke:#1f77b4;stroke-opacity:0.6;stroke-width:1.5;"/>
    <path clip-path="url(#pfa2b921f32)" d="M 338.883645 124.623633 
L 338.883645 77.191545 
" style="fill:none;stroke:#1f77b4;stroke-opacity:0.6;stroke-width:1.5;"/>
    <path clip-path="url(#pfa2b921f32)" d="M 163.06208 225.515241 
L 163.06208 156.376514 
" style="fill:none;stroke:#1f77b4;stroke-opacity:0.6;stroke-width:1.5;"/>
    <path clip-path="url(#pfa2b921f32)" d="M 245.066298 160.677376 
L 245.066298 129.436211 
" style="fill:none;stroke:#1f77b4;stroke-opacity:0.6;stroke-width:1.5;"/>
    <path clip-path="url(#pfa2b921f32)" d="M 195.946268 224.386399 
L 195.946268 172.274562 
" style="fill:none;stroke:#1f77b4;stroke-opacity:0.6;stroke-width:1.5;"/>
    <path clip-path="url(#pfa2b921f32)" d="M 124.63226 194.720658 
L 124.63226 158.265888 
" style="fill:none;stroke:#1f77b4;stroke-opacity:0.6;stroke-width:1.5;"/>
    <path clip-path="url(#pfa2b921f32)" d="M 174.451239 182.966954 
L 174.451239 122.61477 
" style="fill:none;stroke:#1f77b4;stroke-opacity:0.6;stroke-width:1.5;"/>
    <path clip-path="url(#pfa2b921f32)" d="M 235.235417 157.065088 
L 235.235417 117.70625 
" style="fill:none;stroke:#1f77b4;stroke-opacity:0.6;stroke-width:1.5;"/>
    <path clip-path="url(#pfa2b921f32)" d="M 167.003589 219.131575 
L 167.003589 157.001581 
" style="fill:none;stroke:#1f77b4;stroke-opacity:0.6;stroke-width:1.5;"/>
    <path clip-path="url(#pfa2b921f32)" d="M 161.973572 180.87585 
L 161.973572 141.62597 
" style="fill:none;stroke:#1f77b4;stroke-opacity:0.6;stroke-width:1.5;"/>
    <path clip-path="url(#pfa2b921f32)" d="M 101.63624 234.312147 
L 101.63624 204.796712 
" style="fill:none;stroke:#1f77b4;stroke-opacity:0.6;stroke-width:1.5;"/>
    <path clip-path="url(#pfa2b921f32)" d="M 195.556686 211.525752 
L 195.556686 177.253355 
" style="fill:none;stroke:#1f77b4;stroke-opacity:0.6;stroke-width:1.5;"/>
    <path clip-path="url(#pfa2b921f32)" d="M 118.994969 234.776473 
L 118.994969 210.158269 
" style="fill:none;stroke:#1f77b4;stroke-opacity:0.6;stroke-width:1.5;"/>
    <path clip-path="url(#pfa2b921f32)" d="M 281.11288 165.353013 
L 281.11288 113.922649 
" style="fill:none;stroke:#1f77b4;stroke-opacity:0.6;stroke-width:1.5;"/>
    <path clip-path="url(#pfa2b921f32)" d="M 129.834151 175.47783 
L 129.834151 139.075522 
" style="fill:none;stroke:#1f77b4;stroke-opacity:0.6;stroke-width:1.5;"/>
    <path clip-path="url(#pfa2b921f32)" d="M 302.126674 143.860196 
L 302.126674 109.486617 
" style="fill:none;stroke:#1f77b4;stroke-opacity:0.6;stroke-width:1.5;"/>
    <path clip-path="url(#pfa2b921f32)" d="M 243.324697 146.42704 
L 243.324697 97.892118 
" style="fill:none;stroke:#1f77b4;stroke-opacity:0.6;stroke-width:1.5;"/>
    <path clip-path="url(#pfa2b921f32)" d="M 204.06992 212.445853 
L 204.06992 159.468826 
" style="fill:none;stroke:#1f77b4;stroke-opacity:0.6;stroke-width:1.5;"/>
    <path clip-path="url(#pfa2b921f32)" d="M 314.581417 117.41125 
L 314.581417 74.064924 
" style="fill:none;stroke:#1f77b4;stroke-opacity:0.6;stroke-width:1.5;"/>
    <path clip-path="url(#pfa2b921f32)" d="M 152.738503 216.381868 
L 152.738503 172.128636 
" style="fill:none;stroke:#1f77b4;stroke-opacity:0.6;stroke-width:1.5;"/>
    <path clip-path="url(#pfa2b921f32)" d="M 310.147211 114.82866 
L 310.147211 44.443636 
" style="fill:none;stroke:#1f77b4;stroke-opacity:0.6;stroke-width:1.5;"/>
    <path clip-path="url(#pfa2b921f32)" d="M 151.260429 238.946498 
L 151.260429 203.998861 
" style="fill:none;stroke:#1f77b4;stroke-opacity:0.6;stroke-width:1.5;"/>
    <path clip-path="url(#pfa2b921f32)" d="M 154.674886 194.731758 
L 154.674886 150.317448 
" style="fill:none;stroke:#1f77b4;stroke-opacity:0.6;stroke-width:1.5;"/>
    <path clip-path="url(#pfa2b921f32)" d="M 373.394856 137.376 
L 373.394856 81.628171 
" style="fill:none;stroke:#1f77b4;stroke-opacity:0.6;stroke-width:1.5;"/>
    <path clip-path="url(#pfa2b921f32)" d="M 144.362771 209.127751 
L 144.362771 159.246278 
" style="fill:none;stroke:#1f77b4;stroke-opacity:0.6;stroke-width:1.5;"/>
    <path clip-path="url(#pfa2b921f32)" d="M 184.694595 206.078513 
L 184.694595 153.70136 
" style="fill:none;stroke:#1f77b4;stroke-opacity:0.6;stroke-width:1.5;"/>
    <path clip-path="url(#pfa2b921f32)" d="M 145.267943 222.033698 
L 145.267943 161.194389 
" style="fill:none;stroke:#1f77b4;stroke-opacity:0.6;stroke-width:1.5;"/>
    <path clip-path="url(#pfa2b921f32)" d="M 197.894114 198.258023 
L 197.894114 140.146562 
" style="fill:none;stroke:#1f77b4;stroke-opacity:0.6;stroke-width:1.5;"/>
    <path clip-path="url(#pfa2b921f32)" d="M 137.992174 204.061518 
L 137.992174 180.721707 
" style="fill:none;stroke:#1f77b4;stroke-opacity:0.6;stroke-width:1.5;"/>
    <path clip-path="url(#pfa2b921f32)" d="M 167.874389 181.587257 
L 167.874389 116.091692 
" style="fill:none;stroke:#1f77b4;stroke-opacity:0.6;stroke-width:1.5;"/>
    <path clip-path="url(#pfa2b921f32)" d="M 290.565656 129.36991 
L 290.565656 81.058076 
" style="fill:none;stroke:#1f77b4;stroke-opacity:0.6;stroke-width:1.5;"/>
    <path clip-path="url(#pfa2b921f32)" d="M 224.121246 185.551558 
L 224.121246 154.203449 
" style="fill:none;stroke:#1f77b4;stroke-opacity:0.6;stroke-width:1.5;"/>
    <path clip-path="url(#pfa2b921f32)" d="M 277.492177 135.726694 
L 277.492177 66.162131 
" style="fill:none;stroke:#1f77b4;stroke-opacity:0.6;stroke-width:1.5;"/>
    <path clip-path="url(#pfa2b921f32)" d="M 235.659371 143.871105 
L 235.659371 93.387759 
" style="fill:none;stroke:#1f77b4;stroke-opacity:0.6;stroke-width:1.5;"/>
    <path clip-path="url(#pfa2b921f32)" d="M 281.949292 126.435926 
L 281.949292 71.078689 
" style="fill:none;stroke:#1f77b4;stroke-opacity:0.6;stroke-width:1.5;"/>
    <path clip-path="url(#pfa2b921f32)" d="M 270.72056 145.312481 
L 270.72056 83.543336 
" style="fill:none;stroke:#1f77b4;stroke-opacity:0.6;stroke-width:1.5;"/>
    <path clip-path="url(#pfa2b921f32)" d="M 263.318743 149.878815 
L 263.318743 116.604947 
" style="fill:none;stroke:#1f77b4;stroke-opacity:0.6;stroke-width:1.5;"/>
    <path clip-path="url(#pfa2b921f32)" d="M 250.359857 181.321427 
L 250.359857 145.194838 
" style="fill:none;stroke:#1f77b4;stroke-opacity:0.6;stroke-width:1.5;"/>
    <path clip-path="url(#pfa2b921f32)" d="M 305.541131 122.762264 
L 305.541131 88.703133 
" style="fill:none;stroke:#1f77b4;stroke-opacity:0.6;stroke-width:1.5;"/>
    <path clip-path="url(#pfa2b921f32)" d="M 294.449885 120.252081 
L 294.449885 60.531461 
" style="fill:none;stroke:#1f77b4;stroke-opacity:0.6;stroke-width:1.5;"/>
    <path clip-path="url(#pfa2b921f32)" d="M 347.660389 137.927634 
L 347.660389 85.16974 
" style="fill:none;stroke:#1f77b4;stroke-opacity:0.6;stroke-width:1.5;"/>
    <path clip-path="url(#pfa2b921f32)" d="M 236.197886 184.042451 
L 236.197886 128.285873 
" style="fill:none;stroke:#1f77b4;stroke-opacity:0.6;stroke-width:1.5;"/>
    <path clip-path="url(#pfa2b921f32)" d="M 293.017645 134.800064 
L 293.017645 88.739171 
" style="fill:none;stroke:#1f77b4;stroke-opacity:0.6;stroke-width:1.5;"/>
   </g>
   <g id="patch_3">
    <path d="M 54 252 
L 54 34.56 
" style="fill:none;stroke:#000000;stroke-linecap:square;stroke-linejoin:miter;stroke-width:0.8;"/>
   </g>
   <g id="patch_4">
    <path d="M 388.8 252 
L 388.8 34.56 
" style="fill:none;stroke:#000000;stroke-linecap:square;stroke-linejoin:miter;stroke-width:0.8;"/>
   </g>
   <g id="patch_5">
    <path d="M 54 252 
L 388.8 252 
" style="fill:none;stroke:#000000;stroke-linecap:square;stroke-linejoin:miter;stroke-width:0.8;"/>
   </g>
   <g id="patch_6">
    <path d="M 54 34.56 
L 388.8 34.56 
" style="fill:none;stroke:#000000;stroke-linecap:square;stroke-linejoin:miter;stroke-width:0.8;"/>
   </g>
  </g>
 </g>
 <defs>
  <clipPath id="pfa2b921f32">
   <rect height="217.44" width="334.8" x="54" y="34.56"/>
  </clipPath>
 </defs>
</svg>
